<svg width="256" height="256" viewBox="0 0 256 256" fill="none" xmlns="http://www.w3.org/2000/svg">
<g clip-path="url(#clip0_105_6)">
<g clip-path="url(#clip1_105_6)">
<path opacity="0.2" d="M206.243 211.901C183.981 224.754 140.296 200.503 106.021 141.137C71.7457 81.7701 72.5861 31.8129 94.8485 18.9597C117.111 6.10645 160.795 30.3573 195.071 89.7237C229.346 149.09 228.505 199.047 206.243 211.901Z" fill="#AD6F69"/>
<path d="M230.417 167.741C228.925 142.963 219.27 114.501 202.491 85.4393C185.713 56.3776 165.891 33.7848 145.179 20.104C124.467 6.42311 104.682 3.38778 90.5641 11.5389L46.0393 37.2453C31.9212 45.3964 24.6806 64.1957 26.1494 88.8258C27.6182 113.456 37.2965 142.066 54.0753 171.127C70.8541 200.189 90.6757 222.782 111.388 236.463C132.099 250.144 151.884 253.179 166.003 245.028L210.527 219.321C224.645 211.17 231.886 192.371 230.417 167.741ZM187.65 94.0081C221.197 152.113 217.514 195.499 201.959 204.48C186.403 213.461 146.989 194.957 113.442 136.852C79.8948 78.7472 83.577 35.3617 99.1329 26.3805C114.689 17.3993 154.103 35.9032 187.65 94.0081ZM94.4456 137.925L64.7624 155.063C55.162 137.106 49.1905 120.765 46.0037 106.527L75.0561 89.7532C79.576 106.526 86.0853 122.698 94.4456 137.925ZM103.014 152.767C112.021 167.62 122.772 181.344 135.038 193.645L105.995 210.413C95.2571 200.533 84.091 187.191 73.3404 169.899L103.014 152.767ZM54.6081 52.0869L71.7409 42.1953C70.5606 49.1034 70.2026 56.127 70.6742 63.1194C70.8532 66.0215 71.1721 69.0159 71.552 71.9875L43.3437 88.2736C42.1383 69.391 46.9183 56.5266 54.6081 52.0869ZM120.463 221.848L148.671 205.562C151.071 207.405 153.489 209.15 155.912 210.756C161.732 214.661 167.994 217.863 174.567 220.295L157.434 230.186C149.744 234.626 136.213 232.333 120.463 221.848Z" fill="#AD6F69"/>
</g>
</g>
<defs>
<clipPath id="clip0_105_6">
<rect width="256" height="256" fill="white"/>
</clipPath>
<clipPath id="clip1_105_6">
<rect width="274.202" height="274.202" fill="white" transform="translate(178.466 -59) rotate(60)"/>
</clipPath>
</defs>
</svg>
